<svg xmlns="http://www.w3.org/2000/svg"  viewBox="0 0 50 50" width="50px" height="50px"><path d="M 24.5 2 C 15.800781 2 14 6.492188 14 9.09375 L 14 14 L 24 14 L 24 15 L 9.09375 15 C 5.792969 15 2 17.601563 2 25 C 2 32.398438 5.792969 35 9.09375 35 L 15 35 L 15 29 C 15 26.800781 16.800781 25 19 25 L 31 25 C 32.699219 25 34 23.699219 34 22 L 34 9.09375 C 34 5.59375 30.699219 2 24.5 2 Z M 20 7 C 21.101563 7 22 7.898438 22 9 C 22 10.101563 21.101563 11 20 11 C 18.898438 11 18 10.101563 18 9 C 18 7.898438 18.898438 7 20 7 Z M 35 15 L 35 22 C 35 24.199219 33.199219 26 31 26 L 19 26 C 17.300781 26 16 27.300781 16 29 L 16 40.90625 C 16 44.40625 19.300781 48 25.5 48 C 34.199219 48 36 43.507813 36 40.90625 L 36 36 L 26 36 L 26 35 L 40.90625 35 C 44.207031 35 48 32.398438 48 25 C 48 17.601563 44.207031 15 40.90625 15 Z M 30 39 C 31.101563 39 32 39.898438 32 41 C 32 42.101563 31.101563 43 30 43 C 28.898438 43 28 42.101563 28 41 C 28 39.898438 28.898438 39 30 39 Z"/></svg>